<?xml version="1.0" encoding="UTF-8"?>
<svg width="198px" height="48px" viewBox="0 0 198 48" version="1.1" xmlns="http://www.w3.org/2000/svg" xmlns:xlink="http://www.w3.org/1999/xlink">
    <!-- Generator: Sketch 56.3 (81716) - https://sketch.com -->
    <title>Artboard</title>
    <desc>Created with Sketch.</desc>
    <g id="Artboard" stroke="none" stroke-width="1" fill="none" fill-rule="evenodd">
        <path d="M39.569,29.508 L27.355,29.508 L27.355,21.82 L48.745,21.82 L48.745,41.04 C45.9756528,42.9826764 42.7310186,44.4809947 39.011,45.535 C35.2909814,46.5890053 31.3850205,47.116 27.293,47.116 C19.026292,47.116 12.5680233,45.0803537 7.918,41.009 C3.26797675,36.9376463 0.943,31.2853695 0.943,24.052 C0.943,19.3399764 1.94532331,15.2273509 3.95,11.714 C5.95467669,8.2006491 8.86864755,5.47267638 12.692,3.53 C16.5153524,1.58732362 21.030974,0.616 26.239,0.616 C31.9430285,0.616 36.6549814,1.79398822 40.375,4.15 C44.0950186,6.50601178 46.5956603,9.87464476 47.877,14.256 L37.957,15.434 C37.0889957,13.1193218 35.6733431,11.4143388 33.71,10.319 C31.7466568,9.22366119 29.1736826,8.676 25.991,8.676 C21.2789764,8.676 17.6313463,9.98832021 15.048,12.613 C12.4646537,15.2376798 11.173,18.9886423 11.173,23.866 C11.173,28.8673583 12.5369864,32.6493205 15.265,35.212 C17.9930136,37.7746795 22.0023069,39.056 27.293,39.056 C32.2943583,39.056 36.3863174,38.2706745 39.569,36.7 L39.569,29.508 Z M81.791,46 L81.791,41.598 C79.8896572,43.4166758 77.8540109,44.7496624 75.684,45.597 C73.5139891,46.4443376 71.0236807,46.868 68.213,46.868 C63.9556454,46.868 60.6903447,46.0103419 58.417,44.295 C56.1436553,42.5796581 55.007,40.1306826 55.007,36.948 C55.007,33.3933156 56.4949851,30.7480087 59.471,29.012 C62.4470149,27.2759913 67.1383013,26.3253342 73.545,26.16 L81.481,25.974 L81.481,24.734 C81.481,22.9153242 80.8196733,21.5203382 79.497,20.549 C78.1743267,19.5776618 76.2936789,19.092 73.855,19.092 C69.18431,19.092 66.3943379,20.4146534 65.485,23.06 L57.115,22.254 C57.7763366,18.9886503 59.5226525,16.5706745 62.354,15 C65.1853475,13.4293255 69.1223081,12.644 74.165,12.644 C84.9530539,12.644 90.347,16.9012908 90.347,25.416 L90.347,46 L81.791,46 Z M81.481,31.43 L73.731,31.616 C70.3829833,31.6986671 67.9340077,32.1223295 66.384,32.887 C64.8339922,33.6516705 64.059,34.798659 64.059,36.328 C64.059,37.6506733 64.6273276,38.6633298 65.764,39.366 C66.9006723,40.0686702 68.5436559,40.42 70.693,40.42 C72.4290087,40.42 74.0203261,40.2030022 75.467,39.769 C76.9136739,39.3349978 78.132995,38.7046708 79.125,37.878 C80.6956745,36.6379938 81.481,35.0673428 81.481,33.166 L81.481,31.43 Z M123.145,45.256 C120.251652,46.1653379 117.213683,46.62 114.031,46.62 C109.93898,46.62 106.963009,45.7003425 105.103,43.861 C103.242991,42.0216575 102.313,39.0973534 102.313,35.088 L102.313,20.518 L96.051,20.518 L96.051,13.636 L102.313,13.636 L102.313,5.018 L111.551,5.018 L111.551,13.636 L122.153,13.636 L122.153,20.518 L111.551,20.518 L111.551,34.778 C111.551,36.3900081 111.943663,37.5783295 112.729,38.343 C113.514337,39.1076705 114.754325,39.49 116.449,39.49 C118.226342,39.49 120.044991,39.2006696 121.905,38.622 L123.145,45.256 Z M155.385,46 L155.385,26.78 C155.385,24.3826547 154.816672,22.646672 153.68,21.572 C152.543328,20.497328 150.735012,19.96 148.255,19.96 C146.932327,19.96 145.620007,20.2079975 144.318,20.704 C143.015993,21.2000025 141.889671,21.9026621 140.939,22.812 C139.202991,24.4653416 138.335,26.325323 138.335,28.392 L138.335,46 L129.097,46 L129.097,1.732 L138.335,1.732 L138.335,18.658 C141.765684,14.6486466 146.16764,12.644 151.541,12.644 C155.757021,12.644 158.991322,13.7083227 161.244,15.837 C163.496678,17.9656773 164.623,21.0139802 164.623,24.982 L164.623,46 L155.385,46 Z M173.613,46 L173.613,13.636 L182.665,13.636 L182.665,18.906 C185.847683,15.0206472 189.753644,13.078 194.383,13.078 C195.457672,13.078 196.656327,13.1813323 197.979,13.388 L196.925,21.076 C195.684994,20.8279988 194.486339,20.704 193.329,20.704 C190.228985,20.704 187.666343,21.5719913 185.641,23.308 C183.780991,24.9613416 182.851,26.8626559 182.851,29.012 L182.851,46 L173.613,46 Z" id="Gathr" fill="#000000" fill-rule="nonzero"></path>
    </g>
</svg>