<?xml version="1.0" encoding="UTF-8"?>
<svg width="251px" height="48px" viewBox="0 0 251 48" version="1.1" xmlns="http://www.w3.org/2000/svg" xmlns:xlink="http://www.w3.org/1999/xlink">
    <!-- Generator: Sketch 56.3 (81716) - https://sketch.com -->
    <title>Artboard Copy</title>
    <desc>Created with Sketch.</desc>
    <g id="Artboard-Copy" stroke="none" stroke-width="1" fill="none" fill-rule="evenodd">
        <path d="M49.293,20.898 L49.293,23.502 C49.293,35.84 40.241,47.93 24.803,47.93 C11.225,47.93 0.437,37.328 0.437,23.874 C0.437,9.986 11.659,0.252 24.989,0.252 C35.343,0.252 45.325,7.258 47.929,16.496 L34.785,16.496 C32.615,12.714 29.081,10.544 24.679,10.544 C17.301,10.544 12.155,16.496 12.155,23.874 C12.155,31.5 16.991,37.638 24.741,37.638 C30.197,37.638 34.289,34.972 35.715,30.26 L22.013,30.26 L22.013,20.898 L49.293,20.898 Z M104.553,47 L91.843,47 L89.611,40.366 L73.677,40.366 L71.259,47 L58.673,47 L77.087,1.12 L86.325,1.12 L104.553,47 Z M86.511,31.066 L81.799,15.442 L81.613,15.38 L76.901,31.066 L86.511,31.066 Z M134.951,47 L123.233,47 L123.233,11.412 L114.181,11.412 L114.181,1.12 L143.941,1.12 L143.941,11.412 L134.951,11.412 L134.951,47 Z M197.093,47 L185.375,47 L185.375,28.648 L170.371,28.648 L170.371,47 L158.653,47 L158.653,1.12 L170.371,1.12 L170.371,18.356 L185.375,18.356 L185.375,1.12 L197.093,1.12 L197.093,47 Z M250.741,47 L237.349,47 L226.747,32.182 L226.623,32.182 L226.623,47 L215.401,47 L215.401,1.12 L230.405,1.12 C235.179,1.12 238.837,1.74 241.255,2.794 C246.215,5.026 249.687,10.42 249.687,16.93 C249.687,24.184 245.347,30.136 238.279,31.376 L250.741,47 Z M226.623,24.184 L230.963,24.184 C235.613,24.184 238.465,22.014 238.465,17.612 C238.465,13.644 235.489,11.412 231.087,11.412 L226.623,11.412 L226.623,24.184 Z" id="GATHR" fill="#ff544e" fill-rule="nonzero"></path>
    </g>
</svg>
